<svg width="144" height="22" viewBox="0 0 144 22" fill="none" xmlns="http://www.w3.org/2000/svg">
<path d="M0.376 0.912H19.465V5.637H6.802V8.904H19.087V13.737H6.802V21H0.376V0.912ZM32.2487 21.405C29.5667 21.405 27.4337 20.937 25.8497 20.001C24.5537 19.263 23.6087 18.237 23.0147 16.923C22.6007 16.005 22.3937 14.943 22.3937 13.737V13.359C22.3937 12.171 22.6007 11.1 23.0147 10.146C23.6087 8.814 24.5447 7.761 25.8227 6.987C27.4067 6.033 29.5397 5.556 32.2217 5.556H33.1397C35.8937 5.556 38.0717 6.033 39.6737 6.987C40.9517 7.743 41.8607 8.796 42.4007 10.146C42.7607 11.118 42.9407 12.18 42.9407 13.332V13.764C42.9407 14.916 42.7607 15.969 42.4007 16.923C41.8787 18.219 40.9607 19.245 39.6467 20.001C38.0627 20.937 35.8847 21.405 33.1127 21.405H32.2487ZM32.7887 17.166C34.1387 17.166 35.1467 16.725 35.8127 15.843C36.3167 15.195 36.5687 14.385 36.5687 13.413C36.5687 12.441 36.3167 11.631 35.8127 10.983C35.1647 10.155 34.1567 9.741 32.7887 9.741H32.5457C31.1237 9.741 30.1067 10.155 29.4947 10.983C29.0087 11.613 28.7657 12.423 28.7657 13.413C28.7657 14.403 29.0087 15.222 29.4947 15.87C30.1067 16.734 31.1237 17.166 32.5457 17.166H32.7887ZM55.399 21.405C52.717 21.405 50.584 20.937 49 20.001C47.704 19.263 46.759 18.237 46.165 16.923C45.751 16.005 45.544 14.943 45.544 13.737V13.359C45.544 12.171 45.751 11.1 46.165 10.146C46.759 8.814 47.695 7.761 48.973 6.987C50.557 6.033 52.69 5.556 55.372 5.556H56.29C59.044 5.556 61.222 6.033 62.824 6.987C64.102 7.743 65.011 8.796 65.551 10.146C65.911 11.118 66.091 12.18 66.091 13.332V13.764C66.091 14.916 65.911 15.969 65.551 16.923C65.029 18.219 64.111 19.245 62.797 20.001C61.213 20.937 59.035 21.405 56.263 21.405H55.399ZM55.939 17.166C57.289 17.166 58.297 16.725 58.963 15.843C59.467 15.195 59.719 14.385 59.719 13.413C59.719 12.441 59.467 11.631 58.963 10.983C58.315 10.155 57.307 9.741 55.939 9.741H55.696C54.274 9.741 53.257 10.155 52.645 10.983C52.159 11.613 51.916 12.423 51.916 13.413C51.916 14.403 52.159 15.222 52.645 15.87C53.257 16.734 54.274 17.166 55.696 17.166H55.939ZM88.9174 0.560999V21H82.7884V19.137C82.3924 19.623 81.8164 20.055 81.0604 20.433C79.9084 21.009 78.5764 21.297 77.0644 21.297H76.7404C74.0584 21.297 72.0154 20.505 70.6114 18.921C69.9814 18.237 69.5134 17.454 69.2074 16.572C68.9194 15.672 68.7754 14.736 68.7754 13.764V13.224C68.7754 12.27 68.9194 11.343 69.2074 10.443C69.5134 9.543 69.9634 8.751 70.5574 8.067C71.9794 6.465 74.0224 5.664 76.6864 5.664H77.0104C78.4324 5.664 79.7464 5.889 80.9524 6.339C81.5104 6.537 81.9424 6.762 82.2484 7.014C82.5724 7.248 82.7524 7.383 82.7884 7.419V0.560999H88.9174ZM78.8194 9.903C77.4874 9.903 76.5064 10.299 75.8764 11.091C75.3724 11.685 75.1204 12.459 75.1204 13.413V13.494C75.1204 14.394 75.3724 15.159 75.8764 15.789C76.5424 16.617 77.5234 17.031 78.8194 17.031H79.0894C80.3674 17.031 81.3394 16.635 82.0054 15.843C82.2754 15.519 82.4734 15.15 82.5994 14.736C82.7434 14.322 82.8154 13.908 82.8154 13.494V13.413C82.8154 12.999 82.7434 12.585 82.5994 12.171C82.4734 11.757 82.2754 11.388 82.0054 11.064C81.3574 10.29 80.3854 9.903 79.0894 9.903H78.8194ZM99.2854 0.506998V4.449H93.1024V0.506998H99.2854ZM99.2584 5.961V21H93.1294V5.961H99.2584ZM122.824 16.194C122.788 16.914 122.581 17.58 122.203 18.192C121.681 19.092 120.79 19.812 119.53 20.352C117.946 21.036 115.939 21.378 113.509 21.378H112.402C108.802 21.378 106.192 20.523 104.572 18.813C103.312 17.499 102.682 15.789 102.682 13.683V13.305C102.682 11.181 103.294 9.462 104.518 8.148C106.084 6.456 108.595 5.61 112.051 5.61H113.239C116.965 5.61 119.602 6.492 121.15 8.256C121.798 9.012 122.248 9.885 122.5 10.875C122.752 11.847 122.878 12.927 122.878 14.115V14.655H108.973C109.117 15.537 109.495 16.221 110.107 16.707C110.773 17.229 111.79 17.49 113.158 17.49C114.346 17.49 115.219 17.31 115.777 16.95C116.011 16.824 116.173 16.68 116.263 16.518L116.425 16.194H122.824ZM112.726 9.255C111.556 9.255 110.692 9.471 110.134 9.903C109.576 10.317 109.216 10.92 109.054 11.712H116.344C116.344 11.01 116.119 10.461 115.669 10.065C115.039 9.525 114.058 9.255 112.726 9.255ZM134.022 21.351C131.592 21.351 129.657 21.036 128.217 20.406C127.119 19.92 126.327 19.227 125.841 18.327C125.535 17.769 125.382 17.121 125.382 16.383V16.275H131.943C131.997 16.635 132.168 16.932 132.456 17.166C132.906 17.526 133.635 17.706 134.643 17.706H134.697C135.633 17.706 136.335 17.58 136.803 17.328C137.145 17.148 137.316 16.86 137.316 16.464C137.316 16.068 137.163 15.78 136.857 15.6C136.533 15.402 135.795 15.267 134.643 15.195L132.402 15.033C129.936 14.907 128.136 14.394 127.002 13.494C126.048 12.738 125.571 11.703 125.571 10.389V10.227C125.571 9.543 125.697 8.931 125.949 8.391C126.201 7.851 126.624 7.383 127.218 6.987C128.586 6.087 130.836 5.637 133.968 5.637H134.643C138.063 5.637 140.475 6.15 141.879 7.176C142.887 7.914 143.391 8.967 143.391 10.335V10.389H137.019C137.019 10.371 136.983 10.263 136.911 10.065C136.857 9.867 136.722 9.687 136.506 9.525C136.11 9.219 135.408 9.066 134.4 9.066H134.292C133.302 9.066 132.627 9.165 132.267 9.363C131.925 9.579 131.754 9.858 131.754 10.2C131.754 10.578 131.934 10.866 132.294 11.064C132.69 11.298 133.356 11.424 134.292 11.442L136.479 11.523C139.179 11.631 141.087 12.09 142.203 12.9C142.725 13.278 143.094 13.728 143.31 14.25C143.544 14.754 143.661 15.348 143.661 16.032V16.275C143.661 16.995 143.553 17.643 143.337 18.219C143.121 18.795 142.716 19.299 142.122 19.731C140.718 20.811 138.261 21.351 134.751 21.351H134.022Z" fill="black"/>
</svg>
