<svg width="135" height="20" viewBox="0 0 135 20" fill="none" xmlns="http://www.w3.org/2000/svg">
<path d="M0 0.38004H17.9125V4.81383H6.02995V7.87947H17.5578V12.4146H6.02995V19.23H0V0.38004Z" fill="#7B7B7B"/>
<path d="M29.9083 19.61C27.3916 19.61 25.39 19.1708 23.9036 18.2925C22.6875 17.6 21.8008 16.6373 21.2434 15.4042C20.8549 14.5428 20.6606 13.5463 20.6606 12.4146V12.0599C20.6606 10.9451 20.8549 9.94013 21.2434 9.04492C21.8008 7.79502 22.6791 6.80692 23.8783 6.08062C25.3647 5.18542 27.3662 4.73782 29.8829 4.73782H30.7443C33.3286 4.73782 35.3724 5.18542 36.8756 6.08062C38.0749 6.79003 38.9278 7.77813 39.4346 9.04492C39.7724 9.95702 39.9413 10.9536 39.9413 12.0346V12.4399C39.9413 13.5209 39.7724 14.509 39.4346 15.4042C38.9447 16.6204 38.0833 17.5831 36.8503 18.2925C35.3639 19.1708 33.3202 19.61 30.719 19.61H29.9083ZM30.415 15.6323C31.6818 15.6323 32.6276 15.2184 33.2526 14.3908C33.7255 13.7827 33.962 13.0227 33.962 12.1106C33.962 11.1985 33.7255 10.4384 33.2526 9.83034C32.6445 9.05337 31.6987 8.66488 30.415 8.66488H30.187C28.8526 8.66488 27.8983 9.05337 27.324 9.83034C26.8679 10.4215 26.6399 11.1816 26.6399 12.1106C26.6399 13.0396 26.8679 13.8081 27.324 14.4161C27.8983 15.2269 28.8526 15.6323 30.187 15.6323H30.415Z" fill="#7B7B7B"/>
<path d="M51.6318 19.61C49.1151 19.61 47.1136 19.1708 45.6272 18.2925C44.4111 17.6 43.5243 16.6373 42.9669 15.4042C42.5785 14.5428 42.3842 13.5463 42.3842 12.4146V12.0599C42.3842 10.9451 42.5785 9.94013 42.9669 9.04492C43.5243 7.79502 44.4026 6.80692 45.6019 6.08062C47.0882 5.18542 49.0898 4.73782 51.6065 4.73782H52.4679C55.0522 4.73782 57.0959 5.18542 58.5992 6.08062C59.7984 6.79003 60.6514 7.77813 61.1581 9.04492C61.4959 9.95702 61.6648 10.9536 61.6648 12.0346V12.4399C61.6648 13.5209 61.4959 14.509 61.1581 15.4042C60.6683 16.6204 59.8069 17.5831 58.5739 18.2925C57.0875 19.1708 55.0437 19.61 52.4426 19.61H51.6318ZM52.1385 15.6323C53.4053 15.6323 54.3512 15.2184 54.9762 14.3908C55.4491 13.7827 55.6856 13.0227 55.6856 12.1106C55.6856 11.1985 55.4491 10.4384 54.9762 9.83034C54.3681 9.05337 53.4222 8.66488 52.1385 8.66488H51.9105C50.5762 8.66488 49.6218 9.05337 49.0476 9.83034C48.5915 10.4215 48.3635 11.1816 48.3635 12.1106C48.3635 13.0396 48.5915 13.8081 49.0476 14.4161C49.6218 15.2269 50.5762 15.6323 51.9105 15.6323H52.1385Z" fill="#7B7B7B"/>
<path d="M83.0844 0.0506727V19.23H77.3331V17.4818C76.9615 17.9378 76.421 18.3432 75.7116 18.6979C74.6306 19.2384 73.3807 19.5087 71.9619 19.5087H71.6579C69.1412 19.5087 67.2241 18.7655 65.9066 17.2791C65.3155 16.6373 64.8763 15.9025 64.5892 15.0749C64.3189 14.2303 64.1838 13.352 64.1838 12.4399V11.9332C64.1838 11.038 64.3189 10.1681 64.5892 9.32362C64.8763 8.47909 65.2986 7.7359 65.856 7.09406C67.1903 5.59079 69.1074 4.83916 71.6072 4.83916H71.9112C73.2456 4.83916 74.4786 5.05029 75.6103 5.47256C76.1339 5.65836 76.5393 5.86949 76.8264 6.10596C77.1304 6.32554 77.2993 6.45222 77.3331 6.486V0.0506727H83.0844ZM73.6087 8.8169C72.3588 8.8169 71.4383 9.18849 70.8471 9.93168C70.3742 10.4891 70.1377 11.2154 70.1377 12.1106V12.1866C70.1377 13.0311 70.3742 13.749 70.8471 14.3401C71.4721 15.1171 72.3926 15.5056 73.6087 15.5056H73.8621C75.0613 15.5056 75.9734 15.134 76.5984 14.3908C76.8517 14.0868 77.0375 13.7405 77.1558 13.352C77.2909 12.9635 77.3585 12.5751 77.3585 12.1866V12.1106C77.3585 11.7221 77.2909 11.3336 77.1558 10.9451C77.0375 10.5566 76.8517 10.2104 76.5984 9.90634C75.9903 9.18005 75.0782 8.8169 73.8621 8.8169H73.6087Z" fill="#7B7B7B"/>
<path d="M92.8134 0V3.69904H87.0114V0H92.8134ZM92.788 5.11786V19.23H87.0368V5.11786H92.788Z" fill="#7B7B7B"/>
<path d="M114.902 14.7202C114.868 15.3958 114.674 16.0207 114.319 16.595C113.829 17.4396 112.993 18.1152 111.811 18.6219C110.324 19.2637 108.441 19.5847 106.161 19.5847H105.122C101.744 19.5847 99.2946 18.7824 97.7745 17.1778C96.5921 15.9447 96.0009 14.3401 96.0009 12.3639V12.0092C96.0009 10.0161 96.5752 8.40308 97.7238 7.17007C99.1933 5.58235 101.55 4.78849 104.793 4.78849H105.907C109.404 4.78849 111.878 5.61613 113.331 7.27141C113.939 7.98081 114.361 8.80001 114.598 9.72899C114.834 10.6411 114.952 11.6545 114.952 12.7693V13.276H101.904C102.039 14.1037 102.394 14.7455 102.968 15.2016C103.593 15.6914 104.548 15.9363 105.831 15.9363C106.946 15.9363 107.765 15.7674 108.289 15.4296C108.508 15.3113 108.66 15.1762 108.745 15.0242L108.897 14.7202H114.902ZM105.426 8.20884C104.328 8.20884 103.517 8.41152 102.994 8.8169C102.47 9.20538 102.132 9.77122 101.98 10.5144H108.821C108.821 9.85567 108.61 9.34051 108.188 8.96891C107.596 8.4622 106.676 8.20884 105.426 8.20884Z" fill="#7B7B7B"/>
<path d="M125.409 19.5593C123.129 19.5593 121.313 19.2637 119.962 18.6726C118.931 18.2165 118.188 17.5662 117.732 16.7217C117.445 16.1981 117.302 15.59 117.302 14.8975V14.7962H123.458C123.509 15.134 123.669 15.4127 123.94 15.6323C124.362 15.9701 125.046 16.139 125.992 16.139H126.042C126.921 16.139 127.579 16.0207 128.019 15.7843C128.34 15.6154 128.5 15.3451 128.5 14.9735C128.5 14.6019 128.356 14.3317 128.069 14.1628C127.765 13.977 127.073 13.8503 125.992 13.7827L123.889 13.6307C121.575 13.5125 119.886 13.0311 118.822 12.1866C117.926 11.4772 117.479 10.506 117.479 9.27295V9.12093C117.479 8.47909 117.597 7.90481 117.834 7.39809C118.07 6.89137 118.467 6.45221 119.024 6.08062C120.308 5.23609 122.419 4.81383 125.358 4.81383H125.992C129.201 4.81383 131.464 5.29521 132.782 6.25797C133.728 6.95049 134.201 7.93859 134.201 9.22227V9.27295H128.221C128.221 9.25606 128.188 9.15471 128.12 8.96891C128.069 8.78312 127.943 8.61421 127.74 8.4622C127.368 8.17506 126.71 8.03149 125.764 8.03149H125.662C124.733 8.03149 124.1 8.12438 123.762 8.31018C123.441 8.51287 123.281 8.77467 123.281 9.0956C123.281 9.4503 123.45 9.72055 123.788 9.90634C124.159 10.1259 124.784 10.2442 125.662 10.261L127.715 10.3371C130.248 10.4384 132.039 10.8691 133.086 11.6292C133.576 11.9839 133.922 12.4062 134.125 12.896C134.344 13.3689 134.454 13.9263 134.454 14.5682V14.7962C134.454 15.4718 134.353 16.0799 134.15 16.6204C133.947 17.1609 133.567 17.6338 133.01 18.0392C131.692 19.0526 129.387 19.5593 126.093 19.5593H125.409Z" fill="#7B7B7B"/>
</svg>
