<svg width="100" height="100" viewBox="0 0 100 100" fill="none" xmlns="http://www.w3.org/2000/svg">
 <style>
    path { fill: $color-yellow-og; }
  </style>
<rect width="100" height="100" />
<g clip-path="url(#clip0)">
<path d="M86.4002 47.7176C62.0692 47.7176 37.9956 47.7176 13.6646 47.7176C13.7933 39.938 17.7841 34.5374 23.4485 30.1654C38.5749 18.5282 64.9013 19.5569 79.0623 32.2871C83.6967 36.4019 86.1427 41.4168 86.4002 47.7176ZM39.5404 37.8163C39.0255 37.302 38.5105 36.7233 37.9956 36.209C36.7082 37.4306 35.4209 38.7165 34.1979 39.938C34.7128 40.4524 35.5496 41.3525 35.614 41.3525C36.9013 40.2595 38.1887 39.0379 39.5404 37.8163ZM29.2416 37.9449C28.791 37.3663 28.276 36.7876 27.8255 36.209C26.4737 37.3663 25.122 38.5236 23.8347 39.8095C23.7703 39.8738 24.9933 41.2882 25.0577 41.2882C26.4737 40.2595 27.8255 39.1022 29.2416 37.9449ZM35.7427 30.2297C35.2278 29.7153 34.7128 29.2653 34.2623 28.7509C33.0393 29.9082 31.7519 31.0655 30.5933 32.3514C30.5289 32.4157 31.5588 33.4444 32.0094 34.023C33.2967 32.7371 34.5197 31.4512 35.7427 30.2297Z" fill="#ffd600"/>
<path d="M49.7105 64.5625C37.9956 64.5625 26.345 64.5625 14.6301 64.5625C12.1841 64.5625 9.8025 64.4339 8.77261 61.6693C7.67836 58.7761 7.48526 55.7543 9.41629 53.1182C9.93123 52.411 10.9611 51.5752 11.7335 51.5752C20.5519 51.5752 29.6278 49.7106 37.9312 54.1469C41.4071 56.0114 44.6899 58.2617 47.9082 60.5763C49.6462 61.8622 50.6117 61.7979 52.2209 60.4477C54.6025 58.4546 57.2416 56.8473 59.8807 55.1756C64.5795 52.2824 69.6646 51.0608 75.2002 51.318C78.9335 51.5109 82.7312 51.318 86.4646 51.4466C90.4554 51.5752 92.0002 53.4397 92.0002 58.0046C92.0002 62.5051 90.3266 64.4982 86.4002 64.5625C74.1703 64.5625 61.9404 64.5625 49.7105 64.5625Z" fill="#ffd600"/>
<path d="M85.2411 68.2916C84.1469 75.1068 80.9285 78 74.4274 78C58.0136 78.0643 41.6641 78.0643 25.2503 78C19.1354 78 15.7883 74.8496 14.8228 68.2916C38.2526 68.2916 61.6182 68.2916 85.2411 68.2916Z" fill="#ffd600"/>
</g>
<defs>
<clipPath id="clip0">
<rect width="84" height="56"  transform="translate(8 22)"/>
</clipPath>
</defs>
</svg>
